<?xml version="1.0" encoding="utf-8"?>
<!-- Generator: Adobe Illustrator 23.0.3, SVG Export Plug-In . SVG Version: 6.00 Build 0)  -->
<svg version="1.1" id="Ebene_1" xmlns="http://www.w3.org/2000/svg" xmlns:xlink="http://www.w3.org/1999/xlink" x="0px" y="0px"
	 viewBox="0 0 100 125" style="enable-background:new 0 0 100 125;" xml:space="preserve">
<path d="M62.4,37.3c-0.2-0.3-0.6-0.4-0.9-0.4H38.6c-0.4,0-0.7,0.2-0.9,0.4c-0.2,0.3-0.3,0.6-0.3,1l3.4,20.1c0.1,0.6,0.6,1,1.2,1
	h16.2c0.6,0,1.1-0.4,1.2-1l0.6-3.6c0.3,0,0.6,0.1,0.9,0.1c3.2,0,6-2.3,6.6-5.5c0.3-1.8-0.1-3.5-1.1-5c-1-1.4-2.5-2.4-4.1-2.7
	l0.6-3.4C62.7,37.9,62.6,37.5,62.4,37.3z M57,57H43L40,39.3h20L57,57z M64.2,45.8c0.6,0.9,0.9,2,0.7,3.1c-0.4,2.2-2.4,3.7-4.6,3.4
	l1.4-8.2C62.7,44.4,63.6,44.9,64.2,45.8z"/>
<path d="M69.8,61.9c0-0.7-0.6-1.2-1.2-1.2h-37c-0.7,0-1.2,0.6-1.2,1.2s0.6,1.2,1.2,1.2h37C69.2,63.2,69.8,62.6,69.8,61.9z"/>
</svg>
