<?xml version="1.0" encoding="utf-8"?>
<!-- Generator: Adobe Illustrator 23.0.3, SVG Export Plug-In . SVG Version: 6.00 Build 0)  -->
<svg version="1.1" id="Ebene_1" xmlns="http://www.w3.org/2000/svg" xmlns:xlink="http://www.w3.org/1999/xlink" x="0px" y="0px"
	 viewBox="0 0 100 125" style="enable-background:new 0 0 100 125;" xml:space="preserve">
<path d="M27.5,89.7c0.2,0.2,0.4,0.3,0.7,0.3h28.3c0.3,0,0.5-0.1,0.7-0.3c4.8-4.8,8.2-10.8,10.7-17c0.9-0.5,1.8-1,2.7-1.5
	C81.5,65.4,90,60.8,90,48.4c0-3.7-1.2-6.5-3.5-8.1c-4-2.9-10-1.5-11.9-0.9c0.2-4.1,0.1-6.6,0.1-6.7c0-0.5-0.5-1-1-1H11
	c-0.5,0-1,0.4-1,1c0,0.1-0.4,9.6,1.6,21.3C13.4,64.8,17.7,79.7,27.5,89.7z M74.5,41.4c0,0,0.1,0,0.1,0c0.1,0,6.9-2.3,10.7,0.5
	c1.8,1.3,2.6,3.5,2.6,6.5c0,11.2-7.7,15.3-18.3,21.1c-0.2,0.1-0.5,0.2-0.7,0.4c2-5.6,3.3-11.2,4.1-15.9
	C73.9,49.2,74.3,44.9,74.5,41.4z M12,33.7h60.7c0.1,5.9-0.4,37.5-16.6,54.3H28.6C12.4,71.2,11.9,39.6,12,33.7z"/>
<path d="M37.6,19.4c2.6,0,4.7-2.1,4.7-4.7S40.2,10,37.6,10c-0.6,0-1,0.4-1,1s0.4,1,1,1c1.5,0,2.7,1.2,2.7,2.7s-1.2,2.7-2.7,2.7
	c-2.6,0-4.7,2.1-4.7,4.7s2.1,4.7,4.7,4.7c0.6,0,1-0.4,1-1s-0.4-1-1-1c-1.5,0-2.7-1.2-2.7-2.7S36.1,19.4,37.6,19.4z"/>
<path d="M48.8,19.4c2.6,0,4.7-2.1,4.7-4.7S51.4,10,48.8,10c-0.6,0-1,0.4-1,1s0.4,1,1,1c1.5,0,2.7,1.2,2.7,2.7s-1.2,2.7-2.7,2.7
	c-2.6,0-4.7,2.1-4.7,4.7s2.1,4.7,4.7,4.7c0.6,0,1-0.4,1-1s-0.4-1-1-1c-1.5,0-2.7-1.2-2.7-2.7S47.3,19.4,48.8,19.4z"/>
</svg>
