<?xml version="1.0" encoding="utf-8"?>
<!-- Generator: Adobe Illustrator 23.0.3, SVG Export Plug-In . SVG Version: 6.00 Build 0)  -->
<svg version="1.1" id="Ebene_1" xmlns="http://www.w3.org/2000/svg" xmlns:xlink="http://www.w3.org/1999/xlink" x="0px" y="0px"
	 viewBox="0 0 100 125" style="enable-background:new 0 0 100 125;" xml:space="preserve">
<style type="text/css">
	.st0{fill:none;stroke:#000000;stroke-linecap:round;stroke-linejoin:round;stroke-miterlimit:10;}
	.st1{stroke:#000000;stroke-linecap:round;stroke-linejoin:round;stroke-miterlimit:10;}
</style>
<line class="st0" x1="28.9" y1="19.6" x2="37.3" y2="80.9"/>
<line class="st0" x1="71.1" y1="19.6" x2="62.7" y2="80.9"/>
<line class="st0" x1="37.3" y1="80.9" x2="62.7" y2="80.9"/>
<line class="st0" x1="35.5" y1="53.3" x2="39" y2="79"/>
<line class="st0" x1="39" y1="79" x2="50" y2="79"/>
<line class="st0" x1="35.5" y1="53.3" x2="50" y2="53.3"/>
<line class="st0" x1="64.5" y1="53.3" x2="61" y2="79"/>
<line class="st0" x1="61" y1="79" x2="50" y2="79"/>
<line class="st0" x1="64.5" y1="53.3" x2="50" y2="53.3"/>
<polyline class="st1" points="49.1,36.5 66.6,36.5 66.8,36.5 64.8,51.3 49.4,51.3 50.6,51.3 35.2,51.3 33.2,36.5 33.4,36.5 
	50.9,36.5 "/>
<line class="st0" x1="32.9" y1="34.5" x2="49.6" y2="34.5"/>
<line class="st0" x1="30.8" y1="19.5" x2="32.9" y2="34.4"/>
<line class="st0" x1="67.1" y1="34.5" x2="49.6" y2="34.5"/>
<line class="st0" x1="69.2" y1="19.5" x2="67.1" y2="34.5"/>
<path class="st0" d="M30.8,19.5c0.9-1.6,2.5-2.8,4.3-3.6c1.7-0.7,3.6-1.1,5.5-1.5c0.8-0.2,1.6-0.3,2.4-0.5c1.1-0.2,2.2-0.4,3.3-0.6
	c0.7-0.1,1.4-0.2,2-0.6c0.6-0.4,1-1.2,0.7-1.8"/>
<path class="st0" d="M48.9,10.9c3.8,0.1,7.6,0.3,11.2,1.5s7.2,3.7,9,7.1"/>
<line class="st0" x1="69.2" y1="19.5" x2="30.8" y2="19.5"/>
</svg>
