<?xml version="1.0" encoding="utf-8"?>
<!-- Generator: Adobe Illustrator 23.0.3, SVG Export Plug-In . SVG Version: 6.00 Build 0)  -->
<svg version="1.1" id="Ebene_1" xmlns="http://www.w3.org/2000/svg" xmlns:xlink="http://www.w3.org/1999/xlink" x="0px" y="0px"
	 viewBox="0 0 50 100" style="enable-background:new 0 0 50 100;" xml:space="preserve">
<g>
	<path d="M41.2,30.8c-0.1,0-5.9,4.4-16.4,4.4c-10.5,0-15.8-4.3-15.9-4.3l-2.3-1.9l7.2,40.9l0.3,0.3c0.2,0.1,4.5,3.5,10.6,3.5
		c6.1,0,10-3.4,10.2-3.5l0.3-0.2l8.2-40.8L41.2,30.8z M24.7,37.3c7.5,0,12.8-2.1,15.6-3.5l-1.5,7.6c-0.4,0.3-2.1,1.5-6.3,2.9
		c-3.6,1.2-7.5,0.2-9.7-0.4c0,0-0.1,0-0.1,0c-0.2-0.1-0.3-0.1-0.5-0.2l0,0c-4-1-7.5,0-10.4,1.5l-2-11.4
		C12.3,35.3,17.3,37.3,24.7,37.3z M37.4,48c-0.5,0.2-1,0.2-1.7,0.2l-0.6,0c-1.6,0.1-2.9-0.3-4.6-1c-0.2-0.1-0.4-0.2-0.7-0.3
		c1.1-0.1,2.2-0.3,3.2-0.6c2.3-0.8,3.9-1.5,5-2.1L37.4,48z M33.3,68.7c-0.9,0.7-4.1,2.8-8.5,2.8c-4.4,0-7.9-2.1-8.9-2.8l-3.7-21.1
		c4.1-2.2,7.3-2.6,10.8-1.3c1.1,0.4,2.3,1,3.4,1.5c1.1,0.5,2.3,1.1,3.4,1.5c1.5,0.6,3.1,1.1,5,1.1c0.2,0,0.3,0,0.5,0l0.5,0
		c0.4,0,0.8,0,1.2-0.1L33.3,68.7z"/>
	<path d="M23.3,31.3l1.5,0.8c0.2-0.4,4.6-8.8,1.6-13.8c-2.6-4.4-1.6-10.4-1.6-10.5l-1.6-0.3c0,0.3-1.1,6.7,1.8,11.6
		C27.5,23.4,23.4,31.2,23.3,31.3z"/>
	<path d="M27.8,31.3l1.5,0.8c0.2-0.4,4.6-8.8,1.6-13.8c-2.6-4.4-1.6-10.4-1.6-10.5l-1.6-0.3c-0.1,0.3-1.1,6.7,1.8,11.6
		C31.9,23.4,27.8,31.2,27.8,31.3z"/>
	<path d="M32.2,31.3l1.5,0.8c0.2-0.4,4.6-8.8,1.6-13.8c-2.6-4.4-1.6-10.4-1.6-10.5l-1.6-0.3c0,0.3-1.1,6.7,1.8,11.6
		C36.4,23.4,32.2,31.2,32.2,31.3z"/>
	<path d="M28.2,23.8c-0.1,0.7-0.2,1.4-0.3,2.1c0.3,0,0.7,0,1,0.1c0.2-0.7,0.3-1.4,0.4-2.1C29,23.9,28.6,23.8,28.2,23.8z"/>
	<path d="M32.6,24.3c-0.1,0.7-0.2,1.4-0.4,2.1c0.3,0.1,0.6,0.1,1,0.2c0.2-0.7,0.4-1.4,0.5-2.1C33.3,24.5,33,24.4,32.6,24.3z"/>
	<path d="M24.5,25.9c0.2-0.7,0.3-1.4,0.4-2.2c-11.6,0-16.3,3.6-17.5,4.7L8.9,30C9.6,29.3,13.7,26,24.5,25.9z"/>
	<path d="M40.9,29.8l1.8-1.2c-0.4-0.5-2.2-2-5.8-3.2c-0.1,0.7-0.3,1.4-0.5,2.1C39.2,28.4,40.7,29.5,40.9,29.8z"/>
</g>
</svg>
