<?xml version="1.0" encoding="utf-8"?>
<!-- Generator: Adobe Illustrator 23.0.3, SVG Export Plug-In . SVG Version: 6.00 Build 0)  -->
<svg version="1.1" id="Ebene_1" xmlns="http://www.w3.org/2000/svg" xmlns:xlink="http://www.w3.org/1999/xlink" x="0px" y="0px"
	 viewBox="0 0 80 80" style="enable-background:new 0 0 80 80;" xml:space="preserve">
<path d="M17.5,79.7c0.2,0.2,0.4,0.3,0.7,0.3h28.3c0.3,0,0.5-0.1,0.7-0.3c4.8-4.8,8.2-10.8,10.7-17c0.9-0.5,1.8-1,2.7-1.5
	C71.5,55.4,80,50.8,80,38.4c0-3.7-1.2-6.5-3.5-8.1c-4-2.9-10-1.5-11.9-0.9c0.2-4.1,0.1-6.6,0.1-6.7c0-0.5-0.5-1-1-1H1
	c-0.5,0-1,0.4-1,1c0,0.1-0.4,9.6,1.6,21.3C3.4,54.8,7.7,69.7,17.5,79.7z M64.5,31.4L64.5,31.4c0.2,0,7-2.3,10.8,0.5
	c1.8,1.3,2.6,3.5,2.6,6.5c0,11.2-7.7,15.3-18.3,21.1c-0.2,0.1-0.5,0.2-0.7,0.4c2-5.6,3.3-11.2,4.1-15.9
	C63.9,39.2,64.3,34.9,64.5,31.4z M2,23.7h60.7c0.1,5.9-0.4,37.5-16.6,54.3H18.6C2.4,61.2,1.9,29.6,2,23.7z"/>
<path d="M27.6,9.4c2.6,0,4.7-2.1,4.7-4.7S30.2,0,27.6,0c-0.6,0-1,0.4-1,1s0.4,1,1,1c1.5,0,2.7,1.2,2.7,2.7s-1.2,2.7-2.7,2.7
	c-2.6,0-4.7,2.1-4.7,4.7s2.1,4.7,4.7,4.7c0.6,0,1-0.4,1-1s-0.4-1-1-1c-1.5,0-2.7-1.2-2.7-2.7S26.1,9.4,27.6,9.4z"/>
<path d="M38.8,9.4c2.6,0,4.7-2.1,4.7-4.7S41.4,0,38.8,0c-0.6,0-1,0.4-1,1s0.4,1,1,1c1.5,0,2.7,1.2,2.7,2.7s-1.2,2.7-2.7,2.7
	c-2.6,0-4.7,2.1-4.7,4.7s2.1,4.7,4.7,4.7c0.6,0,1-0.4,1-1s-0.4-1-1-1c-1.5,0-2.7-1.2-2.7-2.7S37.3,9.4,38.8,9.4z"/>
</svg>
