<?xml version="1.0" encoding="utf-8"?>
<!-- Generator: Adobe Illustrator 23.0.3, SVG Export Plug-In . SVG Version: 6.00 Build 0)  -->
<svg version="1.1" id="Ebene_1" xmlns="http://www.w3.org/2000/svg" xmlns:xlink="http://www.w3.org/1999/xlink" x="0px" y="0px"
	 viewBox="0 0 43.2 71" style="enable-background:new 0 0 43.2 71;" xml:space="preserve">
<style type="text/css">
	.st0{fill:none;stroke:#000000;stroke-linecap:round;stroke-linejoin:round;stroke-miterlimit:10;}
	.st1{stroke:#000000;stroke-linecap:round;stroke-linejoin:round;stroke-miterlimit:10;}
</style>
<line class="st0" x1="0.5" y1="9.2" x2="8.9" y2="70.5"/>
<line class="st0" x1="42.7" y1="9.2" x2="34.3" y2="70.5"/>
<line class="st0" x1="8.9" y1="70.5" x2="34.3" y2="70.5"/>
<line class="st0" x1="7.1" y1="42.9" x2="10.6" y2="68.6"/>
<line class="st0" x1="10.6" y1="68.6" x2="21.6" y2="68.6"/>
<line class="st0" x1="7.1" y1="42.9" x2="21.6" y2="42.9"/>
<line class="st0" x1="36.1" y1="42.9" x2="32.6" y2="68.6"/>
<line class="st0" x1="32.6" y1="68.6" x2="21.6" y2="68.6"/>
<line class="st0" x1="36.1" y1="42.9" x2="21.6" y2="42.9"/>
<polyline class="st1" points="20.7,26.1 38.2,26.1 38.4,26.1 36.4,40.9 21,40.9 22.2,40.9 6.8,40.9 4.8,26.1 5,26.1 22.5,26.1 "/>
<line class="st0" x1="4.5" y1="24.1" x2="21.2" y2="24.1"/>
<line class="st0" x1="2.4" y1="9.1" x2="4.5" y2="24"/>
<line class="st0" x1="38.7" y1="24.1" x2="21.2" y2="24.1"/>
<line class="st0" x1="40.8" y1="9.1" x2="38.7" y2="24.1"/>
<path class="st0" d="M2.4,9.1c0.9-1.6,2.5-2.8,4.3-3.6c1.7-0.7,3.6-1.1,5.5-1.5c0.8-0.2,1.6-0.3,2.4-0.5c1.1-0.2,2.2-0.4,3.3-0.6
	c0.7-0.1,1.4-0.2,2-0.6c0.6-0.4,1-1.2,0.7-1.8"/>
<path class="st0" d="M20.5,0.5c3.8,0.1,7.6,0.3,11.2,1.5s7.2,3.7,9,7.1"/>
<line class="st0" x1="40.8" y1="9.1" x2="2.4" y2="9.1"/>
</svg>
