<?xml version="1.0" encoding="utf-8"?>
<!-- Generator: Adobe Illustrator 23.0.3, SVG Export Plug-In . SVG Version: 6.00 Build 0)  -->
<svg version="1.1" id="Ebene_1" xmlns="http://www.w3.org/2000/svg" xmlns:xlink="http://www.w3.org/1999/xlink" x="0px" y="0px"
	 viewBox="0 0 36.8 66.2" style="enable-background:new 0 0 36.8 66.2;" xml:space="preserve">
<g>
	<path d="M34.6,23.3c-0.1,0-5.9,4.4-16.4,4.4S2.4,23.4,2.3,23.4L0,21.5l7.2,40.9l0.3,0.3c0.2,0.1,4.5,3.5,10.6,3.5s10-3.4,10.2-3.5
		l0.3-0.2l8.2-40.8L34.6,23.3z M18.1,29.8c7.5,0,12.8-2.1,15.6-3.5l-1.5,7.6c-0.4,0.3-2.1,1.5-6.3,2.9c-3.6,1.2-7.5,0.2-9.7-0.4
		h-0.1c-0.2-0.1-0.3-0.1-0.5-0.2l0,0c-4-1-7.5,0-10.4,1.5l-2-11.4C5.7,27.8,10.7,29.8,18.1,29.8z M30.8,40.5c-0.5,0.2-1,0.2-1.7,0.2
		h-0.6c-1.6,0.1-2.9-0.3-4.6-1c-0.2-0.1-0.4-0.2-0.7-0.3c1.1-0.1,2.2-0.3,3.2-0.6c2.3-0.8,3.9-1.5,5-2.1L30.8,40.5z M26.7,61.2
		c-0.9,0.7-4.1,2.8-8.5,2.8s-7.9-2.1-8.9-2.8L5.6,40.1c4.1-2.2,7.3-2.6,10.8-1.3c1.1,0.4,2.3,1,3.4,1.5c1.1,0.5,2.3,1.1,3.4,1.5
		c1.5,0.6,3.1,1.1,5,1.1c0.2,0,0.3,0,0.5,0h0.5c0.4,0,0.8,0,1.2-0.1L26.7,61.2z"/>
	<path d="M16.7,23.8l1.5,0.8c0.2-0.4,4.6-8.8,1.6-13.8c-2.6-4.4-1.6-10.4-1.6-10.5L16.6,0c0,0.3-1.1,6.7,1.8,11.6
		C20.9,15.9,16.8,23.7,16.7,23.8z"/>
	<path d="M21.2,23.8l1.5,0.8c0.2-0.4,4.6-8.8,1.6-13.8c-2.6-4.4-1.6-10.4-1.6-10.5L21.1,0C21,0.3,20,6.7,22.9,11.6
		C25.3,15.9,21.2,23.7,21.2,23.8z"/>
	<path d="M25.6,23.8l1.5,0.8c0.2-0.4,4.6-8.8,1.6-13.8c-2.6-4.4-1.6-10.4-1.6-10.5L25.5,0c0,0.3-1.1,6.7,1.8,11.6
		C29.8,15.9,25.6,23.7,25.6,23.8z"/>
	<path d="M21.6,16.3c-0.1,0.7-0.2,1.4-0.3,2.1c0.3,0,0.7,0,1,0.1c0.2-0.7,0.3-1.4,0.4-2.1C22.4,16.4,22,16.3,21.6,16.3z"/>
	<path d="M26,16.8c-0.1,0.7-0.2,1.4-0.4,2.1c0.3,0.1,0.6,0.1,1,0.2c0.2-0.7,0.4-1.4,0.5-2.1C26.7,17,26.4,16.9,26,16.8z"/>
	<path d="M17.9,18.4c0.2-0.7,0.3-1.4,0.4-2.2C6.7,16.2,2,19.8,0.8,20.9l1.5,1.6C3,21.8,7.1,18.5,17.9,18.4z"/>
	<path d="M34.3,22.3l1.8-1.2c-0.4-0.5-2.2-2-5.8-3.2c-0.1,0.7-0.3,1.4-0.5,2.1C32.6,20.9,34.1,22,34.3,22.3z"/>
</g>
</svg>
